<?xml version="1.0" encoding="utf-8"?>
<!-- Generator: Adobe Illustrator 28.3.0, SVG Export Plug-In . SVG Version: 6.00 Build 0)  -->
<svg version="1.1" id="Camada_1" xmlns="http://www.w3.org/2000/svg" xmlns:xlink="http://www.w3.org/1999/xlink" x="0px" y="0px"
	 viewBox="0 0 122 32" style="enable-background:new 0 0 122 32;" xml:space="preserve">
<style type="text/css">
	.st0{fill:#22B4FD;}
</style>
<g id="page">
	<g id="_x31_.0-PAGE" transform="translate(-62.000000, -15.000000)">
		<g id="CILIA_x2F_HEADER">
			<g id="header">
				<path id="logo" class="st0" d="M102.2,16.4c-8.5,0-15.3,6.9-15.3,15.3c0,8.5,6.8,15.3,15.3,15.3c8.4,0,15.3-6.9,15.3-15.3
					C117.5,23.2,110.6,16.4,102.2,16.4z M102.2,44.6c-7.1,0-12.9-5.8-12.9-12.9c0-7.1,5.8-12.9,12.9-12.9c7.1,0,12.9,5.8,12.9,12.9
					C115.1,38.8,109.3,44.6,102.2,44.6z M97.1,22.5l4.4,4.4v1.5l-2.9,3h-1.5l-4.3-4.3l-0.8,2.5l0.6,3.4l3.6,3.7l5.2,0.1l4.8,5.3
					c0,0,3.7-1.1,5.9-5.6l-5.2-4.9l-0.1-5.3l-3.4-3.6l-4.2-0.7L97.1,22.5z M89.3,20l1.7-2.3H73.3l-5.2,6.1h-4.7c0,0-2.6,1.9-0.6,2.9
					c1.8,0.8,1.9,0.9,1.9,0.9L63,30.2v15.6h8.6v-2.9H88c0,0-5.3-5.8-3.2-16.4l-15.9,0.1L74,20H89.3z M72.8,30.6c0,0,1.9,1.4,1.1,2.9
					c-0.8,1.5-5.2,0.6-7.1,0c0,0-1.2-0.9-1.3-1.6c-0.1-0.7,0.2-1.9,0.2-1.9S69.9,30.9,72.8,30.6z M126.8,28.3c0.4-0.5,0.9-0.8,1.4-1
					c0.5-0.2,1.1-0.3,1.7-0.3c1.1,0,2,0.3,2.8,1c0.8,0.6,1.2,1.5,1.4,2.7h5.8c-0.1-1.3-0.4-2.4-0.9-3.5c-0.5-1-1.2-1.9-2.1-2.7
					c-0.9-0.7-1.9-1.3-3.1-1.7c-1.2-0.4-2.5-0.6-3.9-0.6c-1.5,0-3,0.2-4.2,0.7c-1.3,0.4-2.3,1.1-3.2,2c-0.9,0.9-1.6,2.1-2.1,3.5
					c-0.5,1.4-0.7,3.1-0.7,5.1c0,2,0.2,3.7,0.7,5.2c0.5,1.5,1.2,2.7,2.1,3.7c0.9,1,2,1.7,3.2,2.2c1.2,0.5,2.6,0.7,4.1,0.7
					c1.3,0,2.6-0.2,3.7-0.6c1.1-0.4,2.2-1,3.1-1.7c0.9-0.7,1.6-1.6,2.2-2.7c0.6-1,0.9-2.2,1.1-3.5H134c-0.1,1.2-0.6,2.1-1.4,2.7
					c-0.8,0.6-1.8,0.9-2.9,0.9c-1.1,0-2.1-0.6-3-1.7c-0.9-1.2-1.3-2.9-1.3-5.4c0-1.2,0.1-2.2,0.4-3C126,29.4,126.4,28.7,126.8,28.3z
					 M141.5,20.4h5.8V15h-5.8V20.4z M141.5,45.2h5.8V22h-5.8V45.2z M149,45.2h5.8V15H149V45.2z M156.5,20.4h5.8V15h-5.8V20.4z
					 M156.5,45.2h5.8V22h-5.8V45.2z M178.2,45.2c-0.2-0.6-0.3-1.8-0.4-2.5c-0.7,0.8-1.6,1.4-2.7,1.8c-1.1,0.5-2.4,0.7-3.9,0.7
					c-2.5,0-4.4-0.6-5.5-1.7c-1.2-1.1-1.8-2.6-1.8-4.3c0-1.6,0.3-2.8,0.8-3.8c0.5-0.9,1.2-1.7,2.1-2.2c0.9-0.5,1.9-0.9,3.2-1.2
					c1.2-0.3,2.6-0.5,4-0.7c1.4-0.2,2.4-0.5,2.9-0.8c0.5-0.3,0.8-0.9,0.8-1.7c0-0.7-0.3-1.3-1-1.7c-0.7-0.4-1.6-0.6-2.7-0.6
					c-1.3,0-2.3,0.3-2.9,0.9c-0.6,0.6-0.9,1.4-1.1,2.4h-5.4c0-1.1,0.2-2.2,0.6-3.1c0.3-0.9,0.9-1.8,1.6-2.4c0.8-0.7,1.7-1.2,3-1.6
					c1.2-0.4,2.7-0.6,4.4-0.6c1.7,0,3.2,0.2,4.4,0.6c1.2,0.4,2.2,0.9,2.9,1.7c0.7,0.7,1.2,1.6,1.6,2.7c0.3,1.1,0.5,2.3,0.5,3.7v14.4
					H178.2z M177.8,33.9c-0.3,0.3-0.7,0.5-1.3,0.7c-0.6,0.2-1.4,0.4-2.4,0.6c-1.7,0.3-2.8,0.7-3.4,1.2c-0.6,0.5-0.9,1.2-0.9,2.2
					c0,1.6,0.9,2.4,2.8,2.4c0.7,0,1.4-0.1,2.1-0.4c0.6-0.2,1.2-0.6,1.6-1c0.5-0.4,0.8-0.9,1.1-1.5c0.3-0.6,0.4-1.2,0.4-1.8
					L177.8,33.9z"/>
			</g>
		</g>
	</g>
</g>
</svg>
